<?xml version="1.0" encoding="UTF-8"?>
<svg width="319px" height="32px" viewBox="0 0 319 32" version="1.1" xmlns="http://www.w3.org/2000/svg" xmlns:xlink="http://www.w3.org/1999/xlink">
    <!-- Generator: Sketch 55 (78076) - https://sketchapp.com -->
    <title>TheWebTelegraph</title>
    <desc>Created with Sketch.</desc>
    <g id="Article" stroke="none" stroke-width="1" fill="none" fill-rule="evenodd">
        <g id="Desktop" transform="translate(-561.000000, -21.000000)" fill="#FFFFFF" fill-rule="nonzero">
            <path d="M584.465,28.92 L579.305,28.92 L579.305,26.58 L577.385,26.58 L577.385,40.08 L579.485,40.08 L579.485,45 L566.885,45 L566.885,40.08 L568.985,40.08 L568.985,26.58 L567.065,26.58 L567.065,28.92 L561.905,28.92 L561.905,21.66 L584.465,21.66 L584.465,28.92 Z M605.345,40.08 L605.345,45 L595.865,45 L595.865,40.08 L597.125,40.08 L597.125,35.16 C597.125,34.4999967 596.985001,34.0150016 596.705,33.705 C596.424999,33.3949985 596.005003,33.24 595.445,33.24 C594.244994,33.24 593.645,33.8799936 593.645,35.16 L593.645,40.08 L594.905,40.08 L594.905,45 L585.425,45 L585.425,40.08 L586.745,40.08 L586.745,26.58 L585.425,26.58 L585.425,21.66 L593.645,21.66 L593.645,30.66 C594.385004,29.7399954 595.184996,29.0500023 596.045,28.59 C596.905004,28.1299977 597.904994,27.9 599.045,27.9 C600.705008,27.9 601.949996,28.4199948 602.78,29.46 C603.610004,30.5000052 604.025,31.9299909 604.025,33.75 L604.025,40.08 L605.345,40.08 Z M615.245,45.42 C612.404986,45.42 610.185008,44.6750075 608.585,43.185 C606.984992,41.6949926 606.185,39.5200143 606.185,36.66 C606.185,33.7999857 606.984992,31.6250074 608.585,30.135 C610.185008,28.6449925 612.404986,27.9 615.245,27.9 C618.065014,27.9 620.099994,28.6349927 621.35,30.105 C622.600006,31.5750073 623.225,33.3999891 623.225,35.58 L623.225,37.74 L613.505,37.74 L613.505,37.92 C613.505,38.6600037 613.724998,39.2049983 614.165,39.555 C614.605002,39.9050017 615.334995,40.08 616.355,40.08 C617.575006,40.08 618.734994,39.9900009 619.835,39.81 C620.935005,39.6299991 621.894996,39.4000014 622.715,39.12 L622.715,43.92 C622.014997,44.3000019 620.990007,44.6449985 619.64,44.955 C618.289993,45.2650016 616.825008,45.42 615.245,45.42 Z M616.985,34.44 L616.985,34.08 C616.985,33.3999966 616.840001,32.9100015 616.55,32.61 C616.259999,32.3099985 615.825003,32.16 615.245,32.16 C614.664997,32.16 614.230001,32.3149984 613.94,32.625 C613.649999,32.9350015 613.505,33.4199967 613.505,34.08 L613.505,34.44 L616.985,34.44 Z M658.835,21.66 L668.435,21.66 L668.435,26.58 L667.235,26.58 L662.765,45 L653.795,45 L651.065,32.04 L650.765,32.04 L647.885,45 L638.915,45 L634.145,26.58 L632.945,26.58 L632.945,21.66 L644.045,21.66 L644.045,26.58 L642.905,26.58 L644.075,34.23 L644.375,34.23 L647.225,21.66 L655.865,21.66 L658.505,34.23 L658.805,34.23 L659.975,26.58 L658.835,26.58 L658.835,21.66 Z M678.275,45.42 C675.434986,45.42 673.215008,44.6750075 671.615,43.185 C670.014992,41.6949926 669.215,39.5200143 669.215,36.66 C669.215,33.7999857 670.014992,31.6250074 671.615,30.135 C673.215008,28.6449925 675.434986,27.9 678.275,27.9 C681.095014,27.9 683.129994,28.6349927 684.38,30.105 C685.630006,31.5750073 686.255,33.3999891 686.255,35.58 L686.255,37.74 L676.535,37.74 L676.535,37.92 C676.535,38.6600037 676.754998,39.2049983 677.195,39.555 C677.635002,39.9050017 678.364995,40.08 679.385,40.08 C680.605006,40.08 681.764995,39.9900009 682.865,39.81 C683.965005,39.6299991 684.924996,39.4000014 685.745,39.12 L685.745,43.92 C685.044997,44.3000019 684.020007,44.6449985 682.67,44.955 C681.319993,45.2650016 679.855008,45.42 678.275,45.42 Z M680.015,34.44 L680.015,34.08 C680.015,33.3999966 679.870001,32.9100015 679.58,32.61 C679.289999,32.3099985 678.855003,32.16 678.275,32.16 C677.694997,32.16 677.260001,32.3149984 676.97,32.625 C676.679999,32.9350015 676.535,33.4199967 676.535,34.08 L676.535,34.44 L680.015,34.44 Z M700.025,45.42 C699.004995,45.42 698.100004,45.1700025 697.31,44.67 C696.519996,44.1699975 695.875002,43.6000032 695.375,42.96 L695.375,45 L687.155,45 L687.155,40.08 L688.475,40.08 L688.475,26.58 L687.155,26.58 L687.155,21.66 L695.375,21.66 L695.375,30.36 C695.875002,29.7199968 696.519996,29.1500025 697.31,28.65 C698.100004,28.1499975 699.004995,27.9 700.025,27.9 C702.06501,27.9 703.599995,28.6599924 704.63,30.18 C705.660005,31.7000076 706.175,33.859986 706.175,36.66 C706.175,39.460014 705.660005,41.6199924 704.63,43.14 C703.599995,44.6600076 702.06501,45.42 700.025,45.42 Z M697.115,40.08 C697.695003,40.08 698.129999,39.9250016 698.42,39.615 C698.710001,39.3049984 698.855,38.8200033 698.855,38.16 L698.855,35.16 C698.855,34.4999967 698.710001,34.0150016 698.42,33.705 C698.129999,33.3949985 697.695003,33.24 697.115,33.24 C696.534997,33.24 696.100001,33.3949985 695.81,33.705 C695.519999,34.0150016 695.375,34.4999967 695.375,35.16 L695.375,38.16 C695.375,38.8200033 695.519999,39.3049984 695.81,39.615 C696.100001,39.9250016 696.534997,40.08 697.115,40.08 Z M738.455,28.92 L733.295,28.92 L733.295,26.58 L731.375,26.58 L731.375,40.08 L733.475,40.08 L733.475,45 L720.875,45 L720.875,40.08 L722.975,40.08 L722.975,26.58 L721.055,26.58 L721.055,28.92 L715.895,28.92 L715.895,21.66 L738.455,21.66 L738.455,28.92 Z M748.355,45.42 C745.514986,45.42 743.295008,44.6750075 741.695,43.185 C740.094992,41.6949926 739.295,39.5200143 739.295,36.66 C739.295,33.7999857 740.094992,31.6250074 741.695,30.135 C743.295008,28.6449925 745.514986,27.9 748.355,27.9 C751.175014,27.9 753.209994,28.6349927 754.46,30.105 C755.710006,31.5750073 756.335,33.3999891 756.335,35.58 L756.335,37.74 L746.615,37.74 L746.615,37.92 C746.615,38.6600037 746.834998,39.2049983 747.275,39.555 C747.715002,39.9050017 748.444995,40.08 749.465,40.08 C750.685006,40.08 751.844994,39.9900009 752.945,39.81 C754.045006,39.6299991 755.004996,39.4000014 755.825,39.12 L755.825,43.92 C755.124996,44.3000019 754.100007,44.6449985 752.75,44.955 C751.399993,45.2650016 749.935008,45.42 748.355,45.42 Z M750.095,34.44 L750.095,34.08 C750.095,33.3999966 749.950001,32.9100015 749.66,32.61 C749.369999,32.3099985 748.935003,32.16 748.355,32.16 C747.774997,32.16 747.340001,32.3149984 747.05,32.625 C746.759999,32.9350015 746.615,33.4199967 746.615,34.08 L746.615,34.44 L750.095,34.44 Z M757.235,45.03 L757.235,40.08 L758.555,40.08 L758.555,26.58 L757.235,26.58 L757.235,21.66 L765.455,21.66 L765.455,40.08 L766.775,40.08 L766.775,45.03 L757.235,45.03 Z M776.675,45.42 C773.834986,45.42 771.615008,44.6750075 770.015,43.185 C768.414992,41.6949926 767.615,39.5200143 767.615,36.66 C767.615,33.7999857 768.414992,31.6250074 770.015,30.135 C771.615008,28.6449925 773.834986,27.9 776.675,27.9 C779.495014,27.9 781.529994,28.6349927 782.78,30.105 C784.030006,31.5750073 784.655,33.3999891 784.655,35.58 L784.655,37.74 L774.935,37.74 L774.935,37.92 C774.935,38.6600037 775.154998,39.2049983 775.595,39.555 C776.035002,39.9050017 776.764995,40.08 777.785,40.08 C779.005006,40.08 780.164995,39.9900009 781.265,39.81 C782.365006,39.6299991 783.324996,39.4000014 784.145,39.12 L784.145,43.92 C783.444997,44.3000019 782.420007,44.6449985 781.07,44.955 C779.719993,45.2650016 778.255008,45.42 776.675,45.42 Z M778.415,34.44 L778.415,34.08 C778.415,33.3999966 778.270001,32.9100015 777.98,32.61 C777.689999,32.3099985 777.255003,32.16 776.675,32.16 C776.094997,32.16 775.660001,32.3149984 775.37,32.625 C775.079999,32.9350015 774.935,33.4199967 774.935,34.08 L774.935,34.44 L778.415,34.44 Z M794.345,52.08 C792.904993,52.08 791.530007,51.980001 790.22,51.78 C788.909993,51.579999 787.895004,51.3500013 787.175,51.09 L787.175,46.17 C789.295011,46.5500019 791.194992,46.74 792.875,46.74 C794.015006,46.74 794.839997,46.5650018 795.35,46.215 C795.860003,45.8649982 796.115,45.2100048 796.115,44.25 L796.115,42.96 C795.614998,43.6000032 794.970004,44.1699975 794.18,44.67 C793.389996,45.1700025 792.485005,45.42 791.465,45.42 C789.42499,45.42 787.890005,44.6600076 786.86,43.14 C785.829995,41.6199924 785.315,39.460014 785.315,36.66 C785.315,33.859986 785.829995,31.7000076 786.86,30.18 C787.890005,28.6599924 789.42499,27.9 791.465,27.9 C792.485005,27.9 793.389996,28.1499975 794.18,28.65 C794.970004,29.1500025 795.614998,29.7199968 796.115,30.36 L796.115,28.32 L804.335,28.32 L804.335,33.24 L803.015,33.24 L803.015,43.8 C803.015,46.7000145 802.295007,48.8049934 800.855,50.115 C799.414993,51.4250065 797.245015,52.08 794.345,52.08 Z M794.375,40.08 C794.955003,40.08 795.389999,39.9250016 795.68,39.615 C795.970001,39.3049984 796.115,38.8200033 796.115,38.16 L796.115,35.16 C796.115,34.4999967 795.970001,34.0150016 795.68,33.705 C795.389999,33.3949985 794.955003,33.24 794.375,33.24 C793.794997,33.24 793.360001,33.3949985 793.07,33.705 C792.779999,34.0150016 792.635,34.4999967 792.635,35.16 L792.635,38.16 C792.635,38.8200033 792.779999,39.3049984 793.07,39.615 C793.360001,39.9250016 793.794997,40.08 794.375,40.08 Z M817.985,27.9 C818.385002,27.9 818.764998,27.9399996 819.125,28.02 C819.485002,28.1000004 819.784999,28.1999994 820.025,28.32 L820.025,34.05 C819.204996,33.7099983 818.325005,33.54 817.385,33.54 C816.124994,33.54 815.155003,33.8699967 814.475,34.53 C813.794997,35.1900033 813.455,36.1699935 813.455,37.47 L813.455,40.08 L816.155,40.08 L816.155,45 L805.235,45 L805.235,40.08 L806.555,40.08 L806.555,33.24 L805.235,33.24 L805.235,28.32 L813.455,28.32 L813.455,30.51 C814.015003,29.6699958 814.654996,29.0250023 815.375,28.575 C816.095004,28.1249977 816.964995,27.9 817.985,27.9 Z M838.475,40.08 L838.475,45 L830.555,45 L830.555,42.96 C830.114998,43.6000032 829.500004,44.1699975 828.71,44.67 C827.919996,45.1700025 826.955006,45.42 825.815,45.42 C824.314993,45.42 823.135004,45.020004 822.275,44.22 C821.414996,43.419996 820.985,42.2900073 820.985,40.83 C820.985,37.0499811 824.194968,35.1100005 830.615,35.01 C830.555,34.3299966 830.295002,33.8650013 829.835,33.615 C829.374998,33.3649987 828.595005,33.24 827.495,33.24 C826.594995,33.24 825.630005,33.3349991 824.6,33.525 C823.569995,33.715001 822.625004,33.9699984 821.765,34.29 L821.765,28.77 C822.825005,28.5099987 823.974994,28.3000008 825.215,28.14 C826.455006,27.9799992 827.664994,27.9 828.845,27.9 C831.825015,27.9 833.954994,28.4399946 835.235,29.52 C836.515006,30.6000054 837.155,32.2699887 837.155,34.53 L837.155,40.08 L838.475,40.08 Z M830.555,37.98 C829.654996,37.98 828.960002,38.0999988 828.47,38.34 C827.979998,38.5800012 827.735,38.98 827.735,39.54 C827.735,39.8800017 827.839999,40.1549989 828.05,40.365 C828.260001,40.575001 828.554998,40.68 828.935,40.68 C829.455003,40.68 829.854999,40.4600022 830.135,40.02 C830.415001,39.5799978 830.555,38.960004 830.555,38.16 L830.555,37.98 Z M839.315,46.74 L840.635,46.74 L840.635,33.24 L839.315,33.24 L839.315,28.32 L847.535,28.32 L847.535,30.36 C848.035003,29.7199968 848.679996,29.1500025 849.47,28.65 C850.260004,28.1499975 851.164995,27.9 852.185,27.9 C854.22501,27.9 855.759995,28.6599924 856.79,30.18 C857.820005,31.7000076 858.335,33.859986 858.335,36.66 C858.335,39.460014 857.820005,41.6199924 856.79,43.14 C855.759995,44.6600076 854.22501,45.42 852.185,45.42 C851.164995,45.42 850.260004,45.1700025 849.47,44.67 C848.679996,44.1699975 848.035003,43.6000032 847.535,42.96 L847.535,46.74 L849.605,46.74 L849.605,51.66 L839.315,51.66 L839.315,46.74 Z M849.275,40.08 C849.855003,40.08 850.289999,39.9250016 850.58,39.615 C850.870001,39.3049984 851.015,38.8200033 851.015,38.16 L851.015,35.16 C851.015,34.4999967 850.870001,34.0150016 850.58,33.705 C850.289999,33.3949985 849.855003,33.24 849.275,33.24 C848.694997,33.24 848.260001,33.3949985 847.97,33.705 C847.679999,34.0150016 847.535,34.4999967 847.535,35.16 L847.535,38.16 C847.535,38.8200033 847.679999,39.3049984 847.97,39.615 C848.260001,39.9250016 848.694997,40.08 849.275,40.08 Z M879.095,40.08 L879.095,45 L869.615,45 L869.615,40.08 L870.875,40.08 L870.875,35.16 C870.875,34.4999967 870.735001,34.0150016 870.455,33.705 C870.174999,33.3949985 869.755003,33.24 869.195,33.24 C867.994994,33.24 867.395,33.8799936 867.395,35.16 L867.395,40.08 L868.655,40.08 L868.655,45 L859.175,45 L859.175,40.08 L860.495,40.08 L860.495,26.58 L859.175,26.58 L859.175,21.66 L867.395,21.66 L867.395,30.66 C868.135004,29.7399954 868.934996,29.0500023 869.795,28.59 C870.655004,28.1299977 871.654994,27.9 872.795,27.9 C874.455008,27.9 875.699996,28.4199948 876.53,29.46 C877.360004,30.5000052 877.775,31.9299909 877.775,33.75 L877.775,40.08 L879.095,40.08 Z" id="TheWebTelegraph"></path>
        </g>
    </g>
</svg>